<svg xmlns="http://www.w3.org/2000/svg" width="1548.485" height="936.364" viewBox="0 0 1548.485 936.364">
  <g id="undraw_authentication_fsn5" transform="translate(533 279.006)">
    <path id="Path_1" data-name="Path 1" d="M892.775,182.979C793.519,183.1,697.982,156.9,606.6,127.8S424.541,66.106,327.131,52.3c-62.647-8.877-133.885-8.061-182.856,24.171C97.138,107.474,83.487,158.8,76.9,206.21c-4.953,35.669-7.237,73.106,11.313,105.733,12.88,22.65,34.922,41.319,50.458,62.906,54.229,75.1,21.617,171.025-31.085,247.865-24.711,36.052-53.658,70.608-72.34,108.725S8.9,812.779,27.958,850.4c18.882,37.289,61.532,64.352,107.3,82.836,92.948,37.61,201.167,45.671,306.477,48.774,233.114,6.887,466.68-7.159,699.621-21.2,86.2-5.193,172.791-10.422,257.214-25.469,46.873-8.345,95.139-20.734,128.375-47.884,42.185-34.47,50.816-90.749,20.117-131.2-51.48-67.851-187.224-80.648-224.138-154.062-20.356-40.416-2.8-86.767,23.051-125.725,55.45-83.59,150.895-158.464,152.5-251.957,1.1-64.2-48.532-126.838-122.665-154.742-77.7-29.228-183.653-21.711-238.094,32.763C1081.738,158.647,980.411,182.892,892.775,182.979Z" transform="translate(-549.91 -326.46)" fill="#acc0d6" opacity="0.1"/>
  </g>
</svg>
